<svg width="14" height="14" viewBox="0 0 14 14" fill="none" xmlns="http://www.w3.org/2000/svg">
<g clip-path="url(#clip0_1236_666)">
<path d="M13.5 6.94C13.5009 6.8012 13.473 6.66372 13.4179 6.53632C13.3628 6.40892 13.2818 6.29438 13.18 6.2L6.99999 0.5L0.819992 6.2C0.718217 6.29438 0.637205 6.40892 0.582112 6.53632C0.52702 6.66372 0.499053 6.8012 0.499992 6.94V12.5C0.499992 12.7652 0.605349 13.0196 0.792886 13.2071C0.980422 13.3946 1.23478 13.5 1.49999 13.5H12.5C12.7652 13.5 13.0196 13.3946 13.2071 13.2071C13.3946 13.0196 13.5 12.7652 13.5 12.5V6.94Z" stroke="#000001" stroke-linecap="round" stroke-linejoin="round"/>
</g>
<defs>
<clipPath id="clip0_1236_666">
<rect width="14" height="14" fill="white"/>
</clipPath>
</defs>
</svg>
