<svg width="15" height="14" viewBox="0 0 15 14" fill="none" xmlns="http://www.w3.org/2000/svg">
<g clip-path="url(#clip0_1236_1837)">
<path d="M2.70999 4.93005L14.02 11.4501" stroke="#000001" stroke-linecap="round" stroke-linejoin="round"/>
<path d="M3.26999 5C4.51263 5 5.51999 3.99264 5.51999 2.75C5.51999 1.50736 4.51263 0.5 3.26999 0.5C2.02735 0.5 1.01999 1.50736 1.01999 2.75C1.01999 3.99264 2.02735 5 3.26999 5Z" stroke="#000001" stroke-linecap="round" stroke-linejoin="round"/>
<path d="M2.70999 9.07005L14.02 2.55005" stroke="#000001" stroke-linecap="round" stroke-linejoin="round"/>
<path d="M3.26999 13.5C4.51263 13.5 5.51999 12.4926 5.51999 11.25C5.51999 10.0074 4.51263 9 3.26999 9C2.02735 9 1.01999 10.0074 1.01999 11.25C1.01999 12.4926 2.02735 13.5 3.26999 13.5Z" stroke="#000001" stroke-linecap="round" stroke-linejoin="round"/>
</g>
<defs>
<clipPath id="clip0_1236_1837">
<rect width="14" height="14" fill="white" transform="translate(0.519989)"/>
</clipPath>
</defs>
</svg>
