<svg width="14" height="14" viewBox="0 0 14 14" fill="none" xmlns="http://www.w3.org/2000/svg">
<g clip-path="url(#clip0_1236_1807)">
<path d="M9 9.5C11.4853 9.5 13.5 7.48528 13.5 5C13.5 2.51472 11.4853 0.5 9 0.5C6.51472 0.5 4.5 2.51472 4.5 5C4.5 7.48528 6.51472 9.5 9 9.5Z" stroke="#000001" stroke-linecap="round" stroke-linejoin="round"/>
<path d="M10.25 3.67003C10.127 3.48506 9.96452 3.32972 9.7742 3.2152C9.58388 3.10069 9.3705 3.02988 9.14948 3.00787C8.92846 2.98586 8.70531 3.01322 8.49615 3.08795C8.28698 3.16269 8.09703 3.28294 7.94 3.44003" stroke="#000001" stroke-linecap="round" stroke-linejoin="round"/>
<path d="M0.5 13.5001L6.08 8.43005" stroke="#000001" stroke-linecap="round" stroke-linejoin="round"/>
</g>
<defs>
<clipPath id="clip0_1236_1807">
<rect width="14" height="14" fill="white"/>
</clipPath>
</defs>
</svg>
