<svg width="15" height="15" viewBox="0 0 15 15" fill="none" xmlns="http://www.w3.org/2000/svg">
<path opacity="1" d="M8.84783 12.1083C9.32055 12.4138 9.88387 12.5469 10.4431 12.4853C11.0022 12.4237 11.5232 12.1711 11.9183 11.7701L12.2638 11.4318C12.4152 11.2767 12.5 11.0683 12.5 10.8513C12.5 10.6344 12.4152 10.426 12.2638 10.2709L10.7976 8.81786C10.644 8.66667 10.4372 8.58195 10.2219 8.58195C10.0065 8.58195 9.79976 8.66667 9.64616 8.81786C9.49126 8.96953 9.28323 9.05446 9.0666 9.05446C8.84997 9.05446 8.64195 8.96953 8.48704 8.81786L6.18417 6.51144C6.10734 6.43562 6.04634 6.34525 6.0047 6.2456C5.96306 6.14596 5.94162 6.03901 5.94162 5.93099C5.94162 5.82297 5.96306 5.71602 6.0047 5.61637C6.04634 5.51672 6.10734 5.42636 6.18417 5.35054C6.33512 5.1967 6.41971 4.98963 6.41971 4.77394C6.41971 4.55824 6.33512 4.35117 6.18417 4.19733L4.72568 2.7366C4.57077 2.58492 4.36275 2.5 4.14612 2.5C3.92949 2.5 3.72146 2.58492 3.56656 2.7366L3.22881 3.08256C2.82837 3.4783 2.5762 4.00006 2.51469 4.5601C2.45317 5.12015 2.58608 5.68434 2.89105 6.15779C4.48007 8.50321 6.50192 10.5229 8.84783 12.1083Z" stroke="#A3A3A3" stroke-width="2" stroke-linecap="round" stroke-linejoin="round"/>
</svg>
