<svg width="15" height="14" viewBox="0 0 15 14" fill="none" xmlns="http://www.w3.org/2000/svg">
<g clip-path="url(#clip0_1236_1843)">
<path d="M9.01999 0.669947C8.03284 0.443188 7.00713 0.443188 6.01999 0.669947" stroke="#000001" stroke-linecap="round" stroke-linejoin="round"/>
<path d="M4.10999 1.46997C3.68094 1.73615 3.28196 2.04796 2.91999 2.39997C2.56798 2.76194 2.25617 3.16092 1.98999 3.58997" stroke="#000001" stroke-linecap="round" stroke-linejoin="round"/>
<path d="M1.18999 5.5C0.963231 6.48715 0.963231 7.51285 1.18999 8.5" stroke="#000001" stroke-linecap="round" stroke-linejoin="round"/>
<path d="M1.98999 10.4099C2.25617 10.839 2.56798 11.2379 2.91999 11.5999C3.28196 11.9519 3.68094 12.2637 4.10999 12.5299" stroke="#000001" stroke-linecap="round" stroke-linejoin="round"/>
<path d="M6.01999 13.33C7.00713 13.5567 8.03284 13.5567 9.01999 13.33" stroke="#000001" stroke-linecap="round" stroke-linejoin="round"/>
<path d="M10.93 12.5299C11.359 12.2637 11.758 11.9519 12.12 11.5999C12.472 11.2379 12.7838 10.839 13.05 10.4099" stroke="#000001" stroke-linecap="round" stroke-linejoin="round"/>
<path d="M13.85 8.5C14.0767 7.51285 14.0767 6.48715 13.85 5.5" stroke="#000001" stroke-linecap="round" stroke-linejoin="round"/>
<path d="M13.05 3.58997C12.7838 3.16092 12.472 2.76194 12.12 2.39997C11.758 2.04796 11.359 1.73615 10.93 1.46997" stroke="#000001" stroke-linecap="round" stroke-linejoin="round"/>
</g>
<defs>
<clipPath id="clip0_1236_1843">
<rect width="14" height="14" fill="white" transform="translate(0.519989)"/>
</clipPath>
</defs>
</svg>
