<svg width="149" height="149" viewBox="0 0 149 149" fill="none" xmlns="http://www.w3.org/2000/svg">
<rect width="149" height="149" fill="#D9D9D9"/>
<mask id="mask0_209_24" style="mask-type:alpha" maskUnits="userSpaceOnUse" x="0" y="0" width="149" height="149">
<rect width="149" height="149" rx="10" fill="#D9D9D9"/>
</mask>
<g mask="url(#mask0_209_24)">
<mask id="mask1_209_24" style="mask-type:alpha" maskUnits="userSpaceOnUse" x="43" y="33" width="63" height="63">
<circle cx="74.5" cy="64.5" r="31.15" fill="#D9D9D9" stroke="black" stroke-width="0.7"/>
</mask>
<g mask="url(#mask1_209_24)">
<path d="M71.3809 96.9378C77.9998 76.05 55.9498 68.7 44.0498 87.6L48.5998 99.85C51.3998 82.35 57.2331 81.8833 60.8498 82L54.5498 91.1L59.4498 94.25L65.3998 84.45C67.4998 87.0167 69.1798 94.18 59.0998 102.3L68.8998 104.4C68.9103 104.362 71.3706 96.9751 71.3809 96.9378Z" fill="#FDC83D" stroke="#FDC83D" stroke-width="0.7"/>
<path d="M76.415 32.7622C69.7961 53.65 91.8461 61 103.746 42.1L99.1961 29.85C96.3961 47.35 90.5628 47.8166 86.9461 47.7L93.2461 38.6L88.3461 35.45L82.3961 45.25C80.2961 42.6833 78.6161 35.52 88.6961 27.4L78.8961 25.3C78.8856 25.3375 76.4253 32.7248 76.415 32.7622Z" fill="#FDC83D" stroke="#FDC83D" stroke-width="0.7"/>
<path d="M44.8506 78.7144C66.2494 74.0026 61.5897 51.2318 39.2718 50.3761L30.938 60.4415C47.4934 54.1164 50.8142 58.9348 52.5215 62.1253L41.4907 61.2193L41.2127 67.0379L52.6748 67.2907C51.502 70.3927 46.1383 75.4293 34.0662 70.7598L37.1476 80.2968C37.1853 80.2871 44.8131 78.7242 44.8506 78.7144Z" fill="#FDC83D" stroke="#FDC83D" stroke-width="0.7"/>
<path d="M102.945 50.9855C81.5465 55.6973 86.2062 78.4682 108.524 79.3239L116.858 69.2585C100.302 75.5836 96.9817 70.7651 95.2744 67.5747L106.305 68.4806L106.583 62.6621L95.1211 62.4092C96.2939 59.3072 101.658 54.2707 113.73 58.9402L110.648 49.4032C110.611 49.4128 102.983 50.9758 102.945 50.9855Z" fill="#FDC83D" stroke="#FDC83D" stroke-width="0.7"/>
<path d="M47.3681 46.6268C62.148 62.8028 79.5383 47.382 69.1204 27.6263L56.2366 25.4417C69.9921 36.6166 67.4795 41.9017 65.5702 44.9755L60.8393 34.9695L55.6614 37.6381L61.1734 47.6909C57.9006 48.2262 50.857 46.0995 48.8648 33.31L42.1462 40.747C42.1734 40.7748 47.3409 46.5992 47.3681 46.6268Z" fill="#FDC83D" stroke="#FDC83D" stroke-width="0.7"/>
<path d="M100.428 83.0732C85.6479 66.8972 68.2576 82.318 78.6755 102.074L91.5593 104.258C77.8038 93.0834 80.3164 87.7983 82.2257 84.7245L86.9566 94.7304L92.1345 92.0619L86.6225 82.0091C89.8953 81.4737 96.9389 83.6005 98.931 96.39L105.65 88.953C105.622 88.9252 100.455 83.1007 100.428 83.0732Z" fill="#FDC83D" stroke="#FDC83D" stroke-width="0.7"/>
</g>
<path d="M23.543 151C23.5423 137.5 23.543 121.5 52.4991 121.5C64.043 121.5 65.9997 116.5 65.9997 98" stroke="#FDC83D" stroke-width="7"/>
<path d="M124 151C124.001 137.5 124 121.5 95.0439 121.5C83.5 121.5 81.5432 116.5 81.5432 98" stroke="#FDC83D" stroke-width="7"/>
</g>
</svg>
